# xmcd CD database file
#
# Track frame offsets:
#	150
#	14999
#	32850
#	57226
#	70801
#	87952
#	103402
#	126577
#	140753
#	154777
#	169028
#	180953
#
# Disc length: 2725 seconds
#
# Revision: 0
# Processed by: cddbd v1.5.1PL0 Copyright (c) Steve Scherf et al.
# Submitted via: CDex 1.51
#
DISCID=af0aa30c
DTITLE=humbert humbert - アメリカの友人
DYEAR=2002
DGENRE=Pop
TTITLE0=アメリカの友人
TTITLE1=おもいで
TTITLE2=雨傘
TTITLE3=春になったら
TTITLE4=笹舟
TTITLE5=午睡
TTITLE6=足跡のつづき
TTITLE7=ひなぎく
TTITLE8=海辺の街まで
TTITLE9=Farewell song
TTITLE10=Blue moon
TTITLE11=Blowin' in the wind
EXTD=YEAR: 2002
EXTT0=
EXTT1=
EXTT2=
EXTT3=
EXTT4=
EXTT5=
EXTT6=
EXTT7=
EXTT8=
EXTT9=
EXTT10=
EXTT11=
PLAYORDER=
